<svg xmlns="http://www.w3.org/2000/svg" xmlns:xlink="http://www.w3.org/1999/xlink" width="500" zoomAndPan="magnify" viewBox="0 0 375 374.999991" height="500" preserveAspectRatio="xMidYMid meet" version="1.0"><defs><g/><clipPath id="3dd9eb7961"><path d="M 96.589844 158.921875 L 299.972656 158.921875 L 299.972656 184.539062 L 96.589844 184.539062 Z M 96.589844 158.921875 " clip-rule="nonzero"/></clipPath></defs><rect x="-37.5" width="450" fill="#ffffff" y="-37.499999" height="449.999989" fill-opacity="1"/><rect x="-37.5" width="450" fill="#f1f0f0" y="-37.499999" height="449.999989" fill-opacity="1"/><g fill="#000000" fill-opacity="1"><g transform="translate(121.744583, 218.051999)"><g><path d="M 2.765625 0 L 2.765625 -0.921875 C 5.398438 -0.921875 7.316406 -1.71875 8.515625 -3.3125 C 9.710938 -4.90625 10.460938 -7.515625 10.765625 -11.140625 C 11.078125 -14.765625 11.234375 -19.585938 11.234375 -25.609375 L 11.234375 -66.484375 C 11.234375 -72.566406 11.078125 -77.40625 10.765625 -81 C 10.460938 -84.59375 9.710938 -87.1875 8.515625 -88.78125 C 7.316406 -90.375 5.398438 -91.171875 2.765625 -91.171875 L 2.765625 -92.09375 L 10.125 -92.09375 C 14.976562 -92.09375 19.460938 -92.398438 23.578125 -93.015625 C 27.691406 -93.628906 31.773438 -93.9375 35.828125 -93.9375 C 42.941406 -93.9375 49.109375 -92.644531 54.328125 -90.0625 C 59.546875 -87.488281 63.890625 -83.957031 67.359375 -79.46875 C 70.828125 -74.988281 73.40625 -69.878906 75.09375 -64.140625 C 76.789062 -58.398438 77.640625 -52.367188 77.640625 -46.046875 C 77.640625 -39.722656 76.789062 -33.691406 75.09375 -27.953125 C 73.40625 -22.210938 70.828125 -17.097656 67.359375 -12.609375 C 63.890625 -8.128906 59.546875 -4.597656 54.328125 -2.015625 C 49.109375 0.554688 42.941406 1.84375 35.828125 1.84375 C 31.773438 1.84375 27.691406 1.535156 23.578125 0.921875 C 19.460938 0.304688 14.976562 0 10.125 0 Z M 19.0625 -90.0625 L 19.0625 -2.03125 C 21.757812 -1.226562 24.457031 -0.597656 27.15625 -0.140625 C 29.863281 0.316406 32.722656 0.546875 35.734375 0.546875 C 41.441406 0.546875 46.410156 -0.675781 50.640625 -3.125 C 54.878906 -5.582031 58.410156 -8.972656 61.234375 -13.296875 C 64.066406 -17.628906 66.1875 -22.601562 67.59375 -28.21875 C 69.007812 -33.84375 69.71875 -39.785156 69.71875 -46.046875 C 69.71875 -52.304688 69.007812 -58.242188 67.59375 -63.859375 C 66.1875 -69.484375 64.066406 -74.457031 61.234375 -78.78125 C 58.410156 -83.113281 54.878906 -86.503906 50.640625 -88.953125 C 46.410156 -91.410156 41.441406 -92.640625 35.734375 -92.640625 C 32.722656 -92.640625 29.863281 -92.425781 27.15625 -92 C 24.457031 -91.570312 21.757812 -90.925781 19.0625 -90.0625 Z M 19.0625 -90.0625 "/></g></g></g><g fill="#000000" fill-opacity="1"><g transform="translate(204.902668, 218.051999)"><g><path d="M 2.765625 -92.09375 L 67.140625 -92.09375 L 67.140625 -79.65625 L 66.21875 -79.65625 C 66.21875 -79.78125 66.234375 -79.828125 66.265625 -79.796875 C 66.296875 -79.765625 66.3125 -79.84375 66.3125 -80.03125 C 66.3125 -82.113281 65.128906 -83.984375 62.765625 -85.640625 C 60.398438 -87.304688 57.144531 -88.644531 53 -89.65625 C 48.851562 -90.664062 44.140625 -91.171875 38.859375 -91.171875 L 38.859375 -25.609375 C 38.859375 -19.585938 38.953125 -14.765625 39.140625 -11.140625 C 39.328125 -7.515625 39.957031 -4.90625 41.03125 -3.3125 C 42.101562 -1.71875 43.957031 -0.921875 46.59375 -0.921875 L 46.59375 0 L 22.5625 0 L 22.5625 -0.921875 C 25.195312 -0.921875 27.113281 -1.71875 28.3125 -3.3125 C 29.507812 -4.90625 30.257812 -7.515625 30.5625 -11.140625 C 30.875 -14.765625 31.03125 -19.585938 31.03125 -25.609375 L 31.03125 -91.171875 C 25.75 -91.171875 21.035156 -90.664062 16.890625 -89.65625 C 12.753906 -88.644531 9.503906 -87.304688 7.140625 -85.640625 C 4.773438 -83.984375 3.59375 -82.113281 3.59375 -80.03125 C 3.59375 -79.84375 3.609375 -79.765625 3.640625 -79.796875 C 3.671875 -79.828125 3.6875 -79.78125 3.6875 -79.65625 L 2.765625 -79.65625 Z M 2.765625 -92.09375 "/></g></g></g><g clip-path="url(#3dd9eb7961)"><path fill="#f1f0f0" d="M 96.589844 158.921875 L 300.019531 158.921875 L 300.019531 184.539062 L 96.589844 184.539062 Z M 96.589844 158.921875 " fill-opacity="1" fill-rule="nonzero"/></g><g fill="#000000" fill-opacity="1"><g transform="translate(78.828421, 175.869328)"><g><path d="M 1.65625 -10.15625 L 5.796875 -10.15625 C 6.867188 -10.15625 7.816406 -9.941406 8.640625 -9.515625 C 9.460938 -9.085938 10.097656 -8.488281 10.546875 -7.71875 C 11.003906 -6.945312 11.234375 -6.066406 11.234375 -5.078125 C 11.234375 -4.085938 11.003906 -3.207031 10.546875 -2.4375 C 10.097656 -1.675781 9.460938 -1.078125 8.640625 -0.640625 C 7.816406 -0.210938 6.867188 0 5.796875 0 L 1.65625 0 Z M 5.734375 -0.921875 C 6.617188 -0.921875 7.394531 -1.097656 8.0625 -1.453125 C 8.738281 -1.804688 9.257812 -2.296875 9.625 -2.921875 C 9.988281 -3.546875 10.171875 -4.265625 10.171875 -5.078125 C 10.171875 -5.890625 9.988281 -6.609375 9.625 -7.234375 C 9.257812 -7.859375 8.738281 -8.347656 8.0625 -8.703125 C 7.394531 -9.054688 6.617188 -9.234375 5.734375 -9.234375 L 2.734375 -9.234375 L 2.734375 -0.921875 Z M 5.734375 -0.921875 "/></g></g></g><g fill="#000000" fill-opacity="1"><g transform="translate(93.563998, 175.869328)"><g><path d="M 8.84375 -0.921875 L 8.84375 0 L 1.65625 0 L 1.65625 -10.15625 L 8.625 -10.15625 L 8.625 -9.234375 L 2.734375 -9.234375 L 2.734375 -5.625 L 7.984375 -5.625 L 7.984375 -4.703125 L 2.734375 -4.703125 L 2.734375 -0.921875 Z M 8.84375 -0.921875 "/></g></g></g><g fill="#000000" fill-opacity="1"><g transform="translate(106.020681, 175.869328)"><g><path d="M 4.453125 0.09375 C 3.703125 0.09375 2.976562 -0.0234375 2.28125 -0.265625 C 1.59375 -0.515625 1.0625 -0.835938 0.6875 -1.234375 L 1.109375 -2.0625 C 1.472656 -1.695312 1.957031 -1.398438 2.5625 -1.171875 C 3.175781 -0.941406 3.804688 -0.828125 4.453125 -0.828125 C 5.367188 -0.828125 6.050781 -0.992188 6.5 -1.328125 C 6.957031 -1.660156 7.1875 -2.09375 7.1875 -2.625 C 7.1875 -3.03125 7.0625 -3.351562 6.8125 -3.59375 C 6.5625 -3.84375 6.257812 -4.03125 5.90625 -4.15625 C 5.550781 -4.289062 5.050781 -4.4375 4.40625 -4.59375 C 3.644531 -4.78125 3.035156 -4.960938 2.578125 -5.140625 C 2.128906 -5.328125 1.738281 -5.601562 1.40625 -5.96875 C 1.082031 -6.332031 0.921875 -6.832031 0.921875 -7.46875 C 0.921875 -7.976562 1.054688 -8.441406 1.328125 -8.859375 C 1.597656 -9.285156 2.015625 -9.625 2.578125 -9.875 C 3.140625 -10.125 3.835938 -10.25 4.671875 -10.25 C 5.253906 -10.25 5.820312 -10.164062 6.375 -10 C 6.9375 -9.84375 7.421875 -9.625 7.828125 -9.34375 L 7.46875 -8.484375 C 7.039062 -8.765625 6.582031 -8.972656 6.09375 -9.109375 C 5.613281 -9.253906 5.140625 -9.328125 4.671875 -9.328125 C 3.785156 -9.328125 3.113281 -9.15625 2.65625 -8.8125 C 2.207031 -8.46875 1.984375 -8.023438 1.984375 -7.484375 C 1.984375 -7.078125 2.109375 -6.75 2.359375 -6.5 C 2.609375 -6.257812 2.914062 -6.070312 3.28125 -5.9375 C 3.65625 -5.8125 4.160156 -5.671875 4.796875 -5.515625 C 5.535156 -5.328125 6.132812 -5.144531 6.59375 -4.96875 C 7.050781 -4.789062 7.441406 -4.519531 7.765625 -4.15625 C 8.085938 -3.789062 8.25 -3.300781 8.25 -2.6875 C 8.25 -2.175781 8.109375 -1.707031 7.828125 -1.28125 C 7.554688 -0.863281 7.132812 -0.53125 6.5625 -0.28125 C 5.988281 -0.03125 5.285156 0.09375 4.453125 0.09375 Z M 4.453125 0.09375 "/></g></g></g><g fill="#000000" fill-opacity="1"><g transform="translate(117.693535, 175.869328)"><g><path d="M 8.03125 -2.71875 L 2.359375 -2.71875 L 1.140625 0 L 0.03125 0 L 4.671875 -10.15625 L 5.734375 -10.15625 L 10.375 0 L 9.25 0 Z M 7.640625 -3.578125 L 5.203125 -9.046875 L 2.765625 -3.578125 Z M 7.640625 -3.578125 "/></g></g></g><g fill="#000000" fill-opacity="1"><g transform="translate(130.846951, 175.869328)"><g><path d="M 8.59375 0 L 6.265625 -3.265625 C 6.003906 -3.234375 5.734375 -3.21875 5.453125 -3.21875 L 2.734375 -3.21875 L 2.734375 0 L 1.65625 0 L 1.65625 -10.15625 L 5.453125 -10.15625 C 6.753906 -10.15625 7.769531 -9.84375 8.5 -9.21875 C 9.238281 -8.601562 9.609375 -7.753906 9.609375 -6.671875 C 9.609375 -5.878906 9.40625 -5.207031 9 -4.65625 C 8.601562 -4.113281 8.03125 -3.722656 7.28125 -3.484375 L 9.765625 0 Z M 5.421875 -4.140625 C 6.429688 -4.140625 7.203125 -4.359375 7.734375 -4.796875 C 8.265625 -5.242188 8.53125 -5.867188 8.53125 -6.671875 C 8.53125 -7.492188 8.265625 -8.125 7.734375 -8.5625 C 7.203125 -9.007812 6.429688 -9.234375 5.421875 -9.234375 L 2.734375 -9.234375 L 2.734375 -4.140625 Z M 5.421875 -4.140625 "/></g></g></g><g fill="#000000" fill-opacity="1"><g transform="translate(144.087462, 175.869328)"><g><path d="M 8.59375 0 L 6.265625 -3.265625 C 6.003906 -3.234375 5.734375 -3.21875 5.453125 -3.21875 L 2.734375 -3.21875 L 2.734375 0 L 1.65625 0 L 1.65625 -10.15625 L 5.453125 -10.15625 C 6.753906 -10.15625 7.769531 -9.84375 8.5 -9.21875 C 9.238281 -8.601562 9.609375 -7.753906 9.609375 -6.671875 C 9.609375 -5.878906 9.40625 -5.207031 9 -4.65625 C 8.601562 -4.113281 8.03125 -3.722656 7.28125 -3.484375 L 9.765625 0 Z M 5.421875 -4.140625 C 6.429688 -4.140625 7.203125 -4.359375 7.734375 -4.796875 C 8.265625 -5.242188 8.53125 -5.867188 8.53125 -6.671875 C 8.53125 -7.492188 8.265625 -8.125 7.734375 -8.5625 C 7.203125 -9.007812 6.429688 -9.234375 5.421875 -9.234375 L 2.734375 -9.234375 L 2.734375 -4.140625 Z M 5.421875 -4.140625 "/></g></g></g><g fill="#000000" fill-opacity="1"><g transform="translate(157.327975, 175.869328)"><g><path d="M 6.09375 0.09375 C 5.09375 0.09375 4.179688 -0.128906 3.359375 -0.578125 C 2.546875 -1.035156 1.90625 -1.65625 1.4375 -2.4375 C 0.976562 -3.21875 0.75 -4.097656 0.75 -5.078125 C 0.75 -6.054688 0.976562 -6.9375 1.4375 -7.71875 C 1.90625 -8.5 2.546875 -9.113281 3.359375 -9.5625 C 4.179688 -10.019531 5.09375 -10.25 6.09375 -10.25 C 7.101562 -10.25 8.007812 -10.023438 8.8125 -9.578125 C 9.625 -9.128906 10.257812 -8.507812 10.71875 -7.71875 C 11.1875 -6.9375 11.421875 -6.054688 11.421875 -5.078125 C 11.421875 -4.097656 11.1875 -3.210938 10.71875 -2.421875 C 10.257812 -1.640625 9.625 -1.023438 8.8125 -0.578125 C 8.007812 -0.128906 7.101562 0.09375 6.09375 0.09375 Z M 6.09375 -0.875 C 6.894531 -0.875 7.617188 -1.050781 8.265625 -1.40625 C 8.921875 -1.769531 9.429688 -2.273438 9.796875 -2.921875 C 10.160156 -3.566406 10.34375 -4.285156 10.34375 -5.078125 C 10.34375 -5.867188 10.160156 -6.585938 9.796875 -7.234375 C 9.429688 -7.878906 8.921875 -8.382812 8.265625 -8.75 C 7.617188 -9.113281 6.894531 -9.296875 6.09375 -9.296875 C 5.289062 -9.296875 4.5625 -9.113281 3.90625 -8.75 C 3.257812 -8.382812 2.75 -7.878906 2.375 -7.234375 C 2 -6.585938 1.8125 -5.867188 1.8125 -5.078125 C 1.8125 -4.285156 2 -3.566406 2.375 -2.921875 C 2.75 -2.273438 3.257812 -1.769531 3.90625 -1.40625 C 4.5625 -1.050781 5.289062 -0.875 6.09375 -0.875 Z M 6.09375 -0.875 "/></g></g></g><g fill="#000000" fill-opacity="1"><g transform="translate(172.252254, 175.869328)"><g><path d="M 1.65625 -10.15625 L 2.734375 -10.15625 L 2.734375 -0.921875 L 8.421875 -0.921875 L 8.421875 0 L 1.65625 0 Z M 1.65625 -10.15625 "/></g></g></g><g fill="#000000" fill-opacity="1"><g transform="translate(183.54771, 175.869328)"><g><path d="M 6.09375 0.09375 C 5.09375 0.09375 4.179688 -0.128906 3.359375 -0.578125 C 2.546875 -1.035156 1.90625 -1.65625 1.4375 -2.4375 C 0.976562 -3.21875 0.75 -4.097656 0.75 -5.078125 C 0.75 -6.054688 0.976562 -6.9375 1.4375 -7.71875 C 1.90625 -8.5 2.546875 -9.113281 3.359375 -9.5625 C 4.179688 -10.019531 5.09375 -10.25 6.09375 -10.25 C 7.101562 -10.25 8.007812 -10.023438 8.8125 -9.578125 C 9.625 -9.128906 10.257812 -8.507812 10.71875 -7.71875 C 11.1875 -6.9375 11.421875 -6.054688 11.421875 -5.078125 C 11.421875 -4.097656 11.1875 -3.210938 10.71875 -2.421875 C 10.257812 -1.640625 9.625 -1.023438 8.8125 -0.578125 C 8.007812 -0.128906 7.101562 0.09375 6.09375 0.09375 Z M 6.09375 -0.875 C 6.894531 -0.875 7.617188 -1.050781 8.265625 -1.40625 C 8.921875 -1.769531 9.429688 -2.273438 9.796875 -2.921875 C 10.160156 -3.566406 10.34375 -4.285156 10.34375 -5.078125 C 10.34375 -5.867188 10.160156 -6.585938 9.796875 -7.234375 C 9.429688 -7.878906 8.921875 -8.382812 8.265625 -8.75 C 7.617188 -9.113281 6.894531 -9.296875 6.09375 -9.296875 C 5.289062 -9.296875 4.5625 -9.113281 3.90625 -8.75 C 3.257812 -8.382812 2.75 -7.878906 2.375 -7.234375 C 2 -6.585938 1.8125 -5.867188 1.8125 -5.078125 C 1.8125 -4.285156 2 -3.566406 2.375 -2.921875 C 2.75 -2.273438 3.257812 -1.769531 3.90625 -1.40625 C 4.5625 -1.050781 5.289062 -0.875 6.09375 -0.875 Z M 6.09375 -0.875 "/></g></g></g><g fill="#000000" fill-opacity="1"><g transform="translate(198.471988, 175.869328)"><g><path d="M 4.453125 0.09375 C 3.703125 0.09375 2.976562 -0.0234375 2.28125 -0.265625 C 1.59375 -0.515625 1.0625 -0.835938 0.6875 -1.234375 L 1.109375 -2.0625 C 1.472656 -1.695312 1.957031 -1.398438 2.5625 -1.171875 C 3.175781 -0.941406 3.804688 -0.828125 4.453125 -0.828125 C 5.367188 -0.828125 6.050781 -0.992188 6.5 -1.328125 C 6.957031 -1.660156 7.1875 -2.09375 7.1875 -2.625 C 7.1875 -3.03125 7.0625 -3.351562 6.8125 -3.59375 C 6.5625 -3.84375 6.257812 -4.03125 5.90625 -4.15625 C 5.550781 -4.289062 5.050781 -4.4375 4.40625 -4.59375 C 3.644531 -4.78125 3.035156 -4.960938 2.578125 -5.140625 C 2.128906 -5.328125 1.738281 -5.601562 1.40625 -5.96875 C 1.082031 -6.332031 0.921875 -6.832031 0.921875 -7.46875 C 0.921875 -7.976562 1.054688 -8.441406 1.328125 -8.859375 C 1.597656 -9.285156 2.015625 -9.625 2.578125 -9.875 C 3.140625 -10.125 3.835938 -10.25 4.671875 -10.25 C 5.253906 -10.25 5.820312 -10.164062 6.375 -10 C 6.9375 -9.84375 7.421875 -9.625 7.828125 -9.34375 L 7.46875 -8.484375 C 7.039062 -8.765625 6.582031 -8.972656 6.09375 -9.109375 C 5.613281 -9.253906 5.140625 -9.328125 4.671875 -9.328125 C 3.785156 -9.328125 3.113281 -9.15625 2.65625 -8.8125 C 2.207031 -8.46875 1.984375 -8.023438 1.984375 -7.484375 C 1.984375 -7.078125 2.109375 -6.75 2.359375 -6.5 C 2.609375 -6.257812 2.914062 -6.070312 3.28125 -5.9375 C 3.65625 -5.8125 4.160156 -5.671875 4.796875 -5.515625 C 5.535156 -5.328125 6.132812 -5.144531 6.59375 -4.96875 C 7.050781 -4.789062 7.441406 -4.519531 7.765625 -4.15625 C 8.085938 -3.789062 8.25 -3.300781 8.25 -2.6875 C 8.25 -2.175781 8.109375 -1.707031 7.828125 -1.28125 C 7.554688 -0.863281 7.132812 -0.53125 6.5625 -0.28125 C 5.988281 -0.03125 5.285156 0.09375 4.453125 0.09375 Z M 4.453125 0.09375 "/></g></g></g><g fill="#000000" fill-opacity="1"><g transform="translate(210.144836, 175.869328)"><g/></g></g><g fill="#000000" fill-opacity="1"><g transform="translate(216.693784, 175.869328)"><g><path d="M 3.625 -9.234375 L 0.0625 -9.234375 L 0.0625 -10.15625 L 8.28125 -10.15625 L 8.28125 -9.234375 L 4.703125 -9.234375 L 4.703125 0 L 3.625 0 Z M 3.625 -9.234375 "/></g></g></g><g fill="#000000" fill-opacity="1"><g transform="translate(227.771502, 175.869328)"><g><path d="M 6.09375 0.09375 C 5.09375 0.09375 4.179688 -0.128906 3.359375 -0.578125 C 2.546875 -1.035156 1.90625 -1.65625 1.4375 -2.4375 C 0.976562 -3.21875 0.75 -4.097656 0.75 -5.078125 C 0.75 -6.054688 0.976562 -6.9375 1.4375 -7.71875 C 1.90625 -8.5 2.546875 -9.113281 3.359375 -9.5625 C 4.179688 -10.019531 5.09375 -10.25 6.09375 -10.25 C 7.101562 -10.25 8.007812 -10.023438 8.8125 -9.578125 C 9.625 -9.128906 10.257812 -8.507812 10.71875 -7.71875 C 11.1875 -6.9375 11.421875 -6.054688 11.421875 -5.078125 C 11.421875 -4.097656 11.1875 -3.210938 10.71875 -2.421875 C 10.257812 -1.640625 9.625 -1.023438 8.8125 -0.578125 C 8.007812 -0.128906 7.101562 0.09375 6.09375 0.09375 Z M 6.09375 -0.875 C 6.894531 -0.875 7.617188 -1.050781 8.265625 -1.40625 C 8.921875 -1.769531 9.429688 -2.273438 9.796875 -2.921875 C 10.160156 -3.566406 10.34375 -4.285156 10.34375 -5.078125 C 10.34375 -5.867188 10.160156 -6.585938 9.796875 -7.234375 C 9.429688 -7.878906 8.921875 -8.382812 8.265625 -8.75 C 7.617188 -9.113281 6.894531 -9.296875 6.09375 -9.296875 C 5.289062 -9.296875 4.5625 -9.113281 3.90625 -8.75 C 3.257812 -8.382812 2.75 -7.878906 2.375 -7.234375 C 2 -6.585938 1.8125 -5.867188 1.8125 -5.078125 C 1.8125 -4.285156 2 -3.566406 2.375 -2.921875 C 2.75 -2.273438 3.257812 -1.769531 3.90625 -1.40625 C 4.5625 -1.050781 5.289062 -0.875 6.09375 -0.875 Z M 6.09375 -0.875 "/></g></g></g><g fill="#000000" fill-opacity="1"><g transform="translate(242.695773, 175.869328)"><g><path d="M 8.59375 0 L 6.265625 -3.265625 C 6.003906 -3.234375 5.734375 -3.21875 5.453125 -3.21875 L 2.734375 -3.21875 L 2.734375 0 L 1.65625 0 L 1.65625 -10.15625 L 5.453125 -10.15625 C 6.753906 -10.15625 7.769531 -9.84375 8.5 -9.21875 C 9.238281 -8.601562 9.609375 -7.753906 9.609375 -6.671875 C 9.609375 -5.878906 9.40625 -5.207031 9 -4.65625 C 8.601562 -4.113281 8.03125 -3.722656 7.28125 -3.484375 L 9.765625 0 Z M 5.421875 -4.140625 C 6.429688 -4.140625 7.203125 -4.359375 7.734375 -4.796875 C 8.265625 -5.242188 8.53125 -5.867188 8.53125 -6.671875 C 8.53125 -7.492188 8.265625 -8.125 7.734375 -8.5625 C 7.203125 -9.007812 6.429688 -9.234375 5.421875 -9.234375 L 2.734375 -9.234375 L 2.734375 -4.140625 Z M 5.421875 -4.140625 "/></g></g></g><g fill="#000000" fill-opacity="1"><g transform="translate(255.936281, 175.869328)"><g><path d="M 8.59375 0 L 6.265625 -3.265625 C 6.003906 -3.234375 5.734375 -3.21875 5.453125 -3.21875 L 2.734375 -3.21875 L 2.734375 0 L 1.65625 0 L 1.65625 -10.15625 L 5.453125 -10.15625 C 6.753906 -10.15625 7.769531 -9.84375 8.5 -9.21875 C 9.238281 -8.601562 9.609375 -7.753906 9.609375 -6.671875 C 9.609375 -5.878906 9.40625 -5.207031 9 -4.65625 C 8.601562 -4.113281 8.03125 -3.722656 7.28125 -3.484375 L 9.765625 0 Z M 5.421875 -4.140625 C 6.429688 -4.140625 7.203125 -4.359375 7.734375 -4.796875 C 8.265625 -5.242188 8.53125 -5.867188 8.53125 -6.671875 C 8.53125 -7.492188 8.265625 -8.125 7.734375 -8.5625 C 7.203125 -9.007812 6.429688 -9.234375 5.421875 -9.234375 L 2.734375 -9.234375 L 2.734375 -4.140625 Z M 5.421875 -4.140625 "/></g></g></g><g fill="#000000" fill-opacity="1"><g transform="translate(269.176788, 175.869328)"><g><path d="M 8.03125 -2.71875 L 2.359375 -2.71875 L 1.140625 0 L 0.03125 0 L 4.671875 -10.15625 L 5.734375 -10.15625 L 10.375 0 L 9.25 0 Z M 7.640625 -3.578125 L 5.203125 -9.046875 L 2.765625 -3.578125 Z M 7.640625 -3.578125 "/></g></g></g><g fill="#000000" fill-opacity="1"><g transform="translate(282.330198, 175.869328)"><g><path d="M 1.65625 -10.15625 L 2.734375 -10.15625 L 2.734375 -0.921875 L 8.421875 -0.921875 L 8.421875 0 L 1.65625 0 Z M 1.65625 -10.15625 "/></g></g></g><g fill="#000000" fill-opacity="1"><g transform="translate(293.62566, 175.869328)"><g><path d="M 8.0625 -5.234375 C 8.726562 -5.085938 9.238281 -4.800781 9.59375 -4.375 C 9.957031 -3.945312 10.140625 -3.394531 10.140625 -2.71875 C 10.140625 -1.84375 9.816406 -1.171875 9.171875 -0.703125 C 8.535156 -0.234375 7.585938 0 6.328125 0 L 1.65625 0 L 1.65625 -10.15625 L 6.03125 -10.15625 C 7.164062 -10.15625 8.046875 -9.925781 8.671875 -9.46875 C 9.296875 -9.019531 9.609375 -8.378906 9.609375 -7.546875 C 9.609375 -6.984375 9.46875 -6.503906 9.1875 -6.109375 C 8.914062 -5.722656 8.539062 -5.429688 8.0625 -5.234375 Z M 2.734375 -9.28125 L 2.734375 -5.59375 L 5.96875 -5.59375 C 6.789062 -5.59375 7.421875 -5.75 7.859375 -6.0625 C 8.304688 -6.375 8.53125 -6.832031 8.53125 -7.4375 C 8.53125 -8.03125 8.304688 -8.484375 7.859375 -8.796875 C 7.421875 -9.117188 6.789062 -9.28125 5.96875 -9.28125 Z M 6.3125 -0.890625 C 7.21875 -0.890625 7.90625 -1.039062 8.375 -1.34375 C 8.84375 -1.65625 9.078125 -2.140625 9.078125 -2.796875 C 9.078125 -4.066406 8.15625 -4.703125 6.3125 -4.703125 L 2.734375 -4.703125 L 2.734375 -0.890625 Z M 6.3125 -0.890625 "/></g></g></g><g fill="#000000" fill-opacity="1"><g transform="translate(307.316135, 175.869328)"><g><path d="M 8.03125 -2.71875 L 2.359375 -2.71875 L 1.140625 0 L 0.03125 0 L 4.671875 -10.15625 L 5.734375 -10.15625 L 10.375 0 L 9.25 0 Z M 7.640625 -3.578125 L 5.203125 -9.046875 L 2.765625 -3.578125 Z M 7.640625 -3.578125 "/></g></g></g></svg>